<svg xmlns="http://www.w3.org/2000/svg" data-name="Layer 2" viewBox="0 0 744.61 142.49">
    <path d="M187.9 104.99c-6.71-5-13.42-10.01-20.01-15.18-1.71-1.34-2.34-1.04-3.52.61-11.38 15.96-34.42 18.88-49.32 5.97-8.56-7.42-14.06-20.61-10.98-31.8 2.49-9.05 7.28-16.98 15.49-21.91 8.45-5.08 18.77-5.94 28.08-2.92 8.95 2.9 14.97 8.69 19.51 16.71.6-.52 1.31-1.09 1.97-1.7 6.18-5.71 12.31-11.47 18.55-17.11 1.32-1.19 1.47-1.92.36-3.4-6.32-8.37-14.37-15.42-23.9-19.9-10.89-5.12-23.09-6.1-34.97-6.1-16.7 0-33.34.09-50.02.18-1.38 0-2.17-.33-2.83-1.66-1-1.99-2.52-3.68-4.43-4.9C66.03-1.85 58.09.13 54.51 6.16c-3.55 5.99-1.59 13.79 4.31 17.16 6.33 3.61 13.97 1.64 17.43-4.67.84-1.53 1.78-1.85 3.32-1.84 7.65.06 15.3.04 22.95.08.58 0 1.3-.36 1.86.5-8.86 5.64-16.05 12.92-21.5 21.86-.71 1.16-1.67 1.14-2.74 1.14-9.15 0-18.29-.02-27.44.05-1.66.01-2.67-.51-3.68-1.87-3.75-5.05-10.82-5.63-15.37-1.42-4.3 3.99-4.21 11.22.09 15.15 3.81 3.48 11.27 4.25 15.28-1.6.99-1.44 2.08-1.83 3.7-1.83 10.48.06 20.95 0 31.43.1 2.53.02 3.18-1.87 4.2-3.8 1.14-2.17 2.44-4.26 3.87-6.24 2.87-3.98 6.27-7.57 10.08-10.66 13.87-11.27 32.32-15.04 49.55-10.33 9.68 2.65 17.87 7.79 24.99 14.79 1.41 1.39 1.41 2.25-.17 3.41-1.45 1.07-2.79 2.33-4.07 3.61-3.74 3.75-3.72 3.77-7.51.29a39.136 39.136 0 0 0-7.27-5.27c-1.04-.59-2.1-1.12-3.18-1.61-9.32-4.23-20.03-4.92-29.82-1.91-15.12 4.64-26.79 17.76-29.08 33.49-.28 1.9-.96 2.41-2.81 2.4-22.03-.04-44.06-.03-66.09.04-1.7 0-2.62-.5-3.49-2.02-3-5.19-8.38-7.47-13.71-6.08C3.87 60.58.05 65.4 0 71.22c-.05 5.67 3.72 10.56 9.31 12.08 5.46 1.49 11.19-.83 14.07-5.9.78-1.38 1.49-2.06 3.2-2.06 22.11.09 44.22.11 66.34.1 2.62 0 2.51 1.41 2.95 3.59s1.12 4.53 1.95 6.7c1.7 4.46 4.13 8.64 7.19 12.3 8.27 9.89 20.38 15.28 33.22 15.08 10.77-.17 20.03-4.38 27.91-11.66.64-.59 1.07-1.47 2.2-.56 2.88 2.31 5.83 4.53 8.79 6.73 1.05.78.77 1.07-.09 1.9-3.63 3.51-7.57 6.53-11.88 9.18-15.62 9.58-35.91 10.41-52.36 2.4-11.13-5.42-20.21-14.73-25.53-25.89-.69-1.44-1.53-1.79-3.07-1.77-10.64.1-21.28.06-31.92.11-1.4 0-2.23-.47-3.07-1.61-1.2-1.65-2.79-3.03-4.73-3.78-5.03-1.94-10.6.21-12.92 4.92-2.37 4.79-.76 10.72 3.63 13.38 4.73 2.88 10.63 1.84 13.83-2.66 1.02-1.43 2.12-1.86 3.72-1.85 9.14.07 18.29.12 27.43.09 1.52 0 2.34.59 3.18 1.81 3.12 4.56 5.83 9.43 10.29 12.99 3.05 2.43 5.98 5.01 9.18 7.27.48.34 1.31.48 1.21 1.15-2.38 1.28-4.73.38-7.07.37-5.98-.04-11.97-.03-17.96 0-1.26 0-2.01-.27-2.67-1.6-2.66-5.37-9.06-7.72-14.79-6.09-5.38 1.53-8.74 6.29-8.74 11.96 0 5.39 3.74 10.62 8.64 12.09 5.28 1.58 11.46-.42 14.26-5.2 1.33-2.27 2.78-2.7 5.12-2.69 2.95.02 5.9.02 8.85.02 12.99 0 25.98.04 38.97-.08 6.08-.06 12.28.19 18.29-.73 4.83-.74 9.57-2.01 14.1-3.86 11.01-4.48 20.23-12.28 27.37-21.7.96-1.27.69-1.86-.48-2.73Z" fill="primary"/>
    <path d="M117.94 71.35c.26 11.03 8.75 19.31 21.09 18.72 8.06-.38 16.95-8.1 16.83-18.84.4-10.08-8.25-18.87-18.84-19.13-8.61-.22-19.35 7.38-19.07 19.26Z" fill="primary"/>
    <path d="M279.19 37.26a15.013 15.013 0 0 0-5.55-4.22c-2.19-.98-4.73-1.47-7.61-1.47s-5.55.56-8 1.67a19.224 19.224 0 0 0-6.38 4.66c-1.8 2-3.21 4.37-4.22 7.12-1.02 2.75-1.52 5.73-1.52 8.93s.51 6.27 1.52 8.98c1.01 2.72 2.4 5.07 4.17 7.07s3.84 3.55 6.23 4.66c2.39 1.11 4.96 1.67 7.71 1.67 3.14 0 5.92-.65 8.34-1.96s4.42-3.14 5.99-5.5l12.76 9.52c-2.94 4.12-6.67 7.17-11.19 9.13-4.52 1.96-9.16 2.94-13.94 2.94-5.43 0-10.44-.85-15.02-2.55-4.58-1.7-8.54-4.14-11.88-7.31-3.34-3.17-5.94-7.02-7.8-11.53-1.86-4.52-2.8-9.55-2.8-15.12s.93-10.6 2.8-15.12 4.47-8.36 7.8-11.53c3.34-3.17 7.3-5.61 11.88-7.31 4.58-1.7 9.58-2.55 15.02-2.55 1.96 0 4.01.18 6.13.54 2.13.36 4.22.93 6.28 1.72s4.04 1.83 5.94 3.14c1.9 1.31 3.6 2.91 5.1 4.81l-11.78 9.62Zm18.94-11.29c0-2.36.83-4.37 2.5-6.04s3.68-2.5 6.04-2.5 4.37.83 6.04 2.5 2.5 3.68 2.5 6.04-.83 4.37-2.5 6.04-3.68 2.5-6.04 2.5-4.37-.83-6.04-2.5-2.5-3.68-2.5-6.04Zm1.18 15.02h14.72v47.7h-14.72v-47.7Zm25.32 0h14.72v7.66h.2c1.57-2.94 3.43-5.15 5.59-6.62 2.16-1.47 4.87-2.21 8.15-2.21.85 0 1.7.03 2.55.1.85.07 1.63.2 2.36.39v13.45c-1.05-.33-2.08-.57-3.09-.74-1.02-.16-2.08-.25-3.19-.25-2.81 0-5.04.39-6.67 1.18-1.64.79-2.9 1.88-3.78 3.29-.88 1.41-1.46 3.09-1.72 5.05s-.39 4.12-.39 6.48v19.92h-14.72v-47.7ZM395.1 56.4c-.72-1.05-1.73-1.91-3.04-2.6a8.926 8.926 0 0 0-4.22-1.03c-3.73 0-6.62 1.11-8.69 3.34-2.06 2.23-3.09 5.14-3.09 8.74s1.03 6.51 3.09 8.73c2.06 2.23 4.96 3.34 8.69 3.34 1.63 0 3.04-.36 4.22-1.08 1.18-.72 2.19-1.57 3.04-2.55l9.72 10.21c-2.29 2.36-4.99 4.01-8.1 4.96-3.11.95-6.07 1.42-8.88 1.42-3.67 0-7.12-.59-10.36-1.77-3.24-1.18-6.05-2.86-8.44-5.05-2.39-2.19-4.27-4.82-5.64-7.9-1.37-3.07-2.06-6.51-2.06-10.31s.69-7.23 2.06-10.31c1.37-3.07 3.25-5.71 5.64-7.9 2.39-2.19 5.2-3.88 8.44-5.05 3.24-1.18 6.69-1.77 10.36-1.77 2.81 0 5.77.48 8.88 1.42 3.11.95 5.81 2.6 8.1 4.96l-9.72 10.21Zm60.95 32.29h-14.13v-6.48h-.2c-.52.92-1.2 1.83-2.01 2.75-.82.92-1.82 1.73-2.99 2.45-1.18.72-2.52 1.31-4.02 1.77-1.51.46-3.14.69-4.91.69-3.73 0-6.76-.57-9.08-1.72-2.32-1.14-4.12-2.73-5.4-4.76-1.28-2.03-2.13-4.42-2.55-7.17-.43-2.75-.64-5.72-.64-8.93v-26.3h14.72v23.36c0 1.37.05 2.8.15 4.27.1 1.47.39 2.83.88 4.07.49 1.24 1.24 2.26 2.26 3.04 1.01.79 2.47 1.18 4.37 1.18s3.44-.34 4.61-1.03c1.18-.69 2.08-1.6 2.7-2.75.62-1.14 1.03-2.44 1.23-3.88.2-1.44.29-2.94.29-4.52V40.98h14.72v47.7Zm9.43-62.72c0-2.36.83-4.37 2.5-6.04s3.68-2.5 6.04-2.5 4.37.83 6.04 2.5 2.5 3.68 2.5 6.04-.83 4.37-2.5 6.04-3.68 2.5-6.04 2.5-4.37-.83-6.04-2.5-2.5-3.68-2.5-6.04Zm1.17 15.02h14.72v47.7h-14.72v-47.7Zm57.81 11.78H511.5v15.9c0 1.31.06 2.5.2 3.58.13 1.08.42 2.01.88 2.8s1.16 1.39 2.11 1.82c.95.43 2.21.64 3.78.64.79 0 1.82-.08 3.09-.25 1.28-.16 2.24-.54 2.9-1.13V88.4c-1.64.59-3.34.98-5.1 1.18s-3.5.29-5.2.29c-2.49 0-4.78-.26-6.87-.79-2.09-.52-3.93-1.36-5.5-2.5-1.57-1.14-2.8-2.63-3.68-4.47-.88-1.83-1.32-4.06-1.32-6.67V52.77h-9.42V40.99h9.42V26.86h14.72v14.13h12.96v11.78Zm54.77-15.51a15.013 15.013 0 0 0-5.55-4.22c-2.19-.98-4.73-1.47-7.61-1.47s-5.55.56-8 1.67a19.224 19.224 0 0 0-6.38 4.66c-1.8 2-3.21 4.37-4.22 7.12-1.02 2.75-1.52 5.73-1.52 8.93s.51 6.27 1.52 8.98c1.01 2.72 2.4 5.07 4.17 7.07s3.84 3.55 6.23 4.66c2.39 1.11 4.96 1.67 7.7 1.67 3.14 0 5.92-.65 8.34-1.96s4.42-3.14 5.99-5.5l12.76 9.52c-2.94 4.12-6.67 7.17-11.19 9.13-4.51 1.96-9.16 2.94-13.94 2.94-5.43 0-10.44-.85-15.02-2.55-4.58-1.7-8.54-4.14-11.88-7.31s-5.94-7.02-7.8-11.53c-1.87-4.52-2.8-9.55-2.8-15.12s.93-10.6 2.8-15.12c1.86-4.52 4.47-8.36 7.8-11.53 3.34-3.17 7.29-5.61 11.88-7.31 4.58-1.7 9.58-2.55 15.02-2.55 1.96 0 4.01.18 6.13.54 2.13.36 4.22.93 6.28 1.72 2.06.79 4.04 1.83 5.94 3.14 1.9 1.31 3.6 2.91 5.1 4.81l-11.78 9.62Zm18.16 27.58c0-3.79.69-7.23 2.06-10.31 1.37-3.07 3.25-5.71 5.64-7.9 2.39-2.19 5.2-3.88 8.44-5.05s6.69-1.77 10.35-1.77 7.12.59 10.36 1.77c3.24 1.18 6.05 2.86 8.44 5.05 2.39 2.19 4.27 4.83 5.64 7.9 1.37 3.08 2.06 6.51 2.06 10.31s-.69 7.23-2.06 10.31-3.26 5.71-5.64 7.9c-2.39 2.19-5.2 3.88-8.44 5.05-3.24 1.18-6.69 1.77-10.36 1.77s-7.12-.59-10.35-1.77-6.05-2.86-8.44-5.05c-2.39-2.19-4.27-4.82-5.64-7.9-1.37-3.07-2.06-6.51-2.06-10.31Zm14.72 0c0 3.6 1.03 6.51 3.09 8.73 2.06 2.23 4.96 3.34 8.69 3.34s6.62-1.11 8.69-3.34c2.06-2.22 3.09-5.14 3.09-8.73s-1.03-6.51-3.09-8.74c-2.06-2.22-4.96-3.34-8.69-3.34s-6.62 1.11-8.69 3.34c-2.06 2.23-3.09 5.14-3.09 8.74Zm46.92-23.85h14.72v7.66h.2c1.57-2.94 3.43-5.15 5.59-6.62 2.16-1.47 4.87-2.21 8.15-2.21.85 0 1.7.03 2.55.1.85.07 1.63.2 2.36.39v13.45c-1.05-.33-2.08-.57-3.09-.74-1.02-.16-2.08-.25-3.19-.25-2.81 0-5.04.39-6.67 1.18-1.64.79-2.9 1.88-3.78 3.29-.88 1.41-1.46 3.09-1.72 5.05s-.39 4.12-.39 6.48v19.92h-14.72v-47.7Zm83.33 39.45c-2.36 3.01-5.33 5.33-8.93 6.97-3.6 1.63-7.33 2.45-11.19 2.45s-7.12-.59-10.36-1.77c-3.24-1.18-6.05-2.86-8.44-5.05-2.39-2.19-4.27-4.82-5.64-7.9-1.37-3.07-2.06-6.51-2.06-10.31s.69-7.23 2.06-10.31c1.37-3.07 3.25-5.71 5.64-7.9 2.39-2.19 5.2-3.88 8.44-5.05 3.24-1.18 6.69-1.77 10.36-1.77 3.4 0 6.49.59 9.28 1.77 2.78 1.18 5.14 2.86 7.07 5.05 1.93 2.19 3.42 4.83 4.47 7.9 1.05 3.08 1.57 6.51 1.57 10.31v4.61h-34.16c.59 2.81 1.87 5.05 3.83 6.72s4.38 2.5 7.26 2.5c2.42 0 4.47-.54 6.13-1.62 1.67-1.08 3.12-2.47 4.37-4.17l10.31 7.56Zm-12.47-21c.06-2.49-.75-4.61-2.45-6.38-1.7-1.77-3.89-2.65-6.58-2.65-1.64 0-3.08.26-4.32.79-1.24.52-2.31 1.19-3.19 2.01-.88.82-1.57 1.77-2.06 2.85a9.28 9.28 0 0 0-.83 3.39h19.43Z" fill="chakra-body-text"/>
    <path d="M255.94 111.92h-5.85v15.75h-2.1v-15.75h-5.85v-1.95h13.8v1.95Zm8.97-1.95h11.12v1.95H267v5.55h8.43v1.95H267v6.3h9.48v1.95h-11.57v-17.7Zm33.73 3.65a4.98 4.98 0 0 0-1.98-1.61c-.78-.36-1.6-.54-2.45-.54-.98 0-1.89.2-2.71.6-.82.4-1.54.94-2.14 1.61-.6.67-1.07 1.46-1.4 2.35-.33.89-.5 1.82-.5 2.79 0 1.03.17 2 .5 2.89s.8 1.67 1.39 2.32c.59.66 1.3 1.18 2.12 1.56.83.38 1.74.58 2.74.58 1.08 0 2.05-.21 2.9-.64.85-.42 1.59-1.04 2.22-1.84l1.58 1.33c-.8 1.07-1.76 1.85-2.89 2.35s-2.4.75-3.81.75c-1.27 0-2.45-.23-3.55-.7a8.727 8.727 0 0 1-2.86-1.94c-.81-.83-1.44-1.8-1.9-2.94-.46-1.13-.69-2.38-.69-3.72s.22-2.52.66-3.65a8.813 8.813 0 0 1 1.86-2.95c.8-.83 1.75-1.49 2.85-1.97s2.31-.72 3.62-.72c1.2 0 2.35.22 3.46.65 1.11.43 2.04 1.14 2.79 2.12l-1.82 1.33Zm11.7-3.65h2.1v7.5h9.45v-7.5h2.1v17.7h-2.1v-8.25h-9.45v8.25h-2.1v-17.7Zm24.55 0h2.65l10.25 14.7h.05v-14.7h2.1v17.7h-2.65l-10.25-14.7h-.05v14.7h-2.1v-17.7Zm34.17 18.15c-1.35 0-2.59-.23-3.71-.7s-2.1-1.11-2.93-1.94a8.706 8.706 0 0 1-1.92-2.95c-.46-1.14-.69-2.38-.69-3.71s.23-2.57.69-3.71 1.1-2.12 1.92-2.95c.83-.82 1.8-1.47 2.93-1.94 1.12-.47 2.36-.7 3.71-.7s2.59.23 3.71.7 2.1 1.11 2.92 1.94c.83.83 1.47 1.81 1.92 2.95s.69 2.38.69 3.71-.23 2.57-.69 3.71c-.46 1.14-1.1 2.12-1.92 2.95s-1.8 1.47-2.92 1.94c-1.12.47-2.36.7-3.71.7Zm0-1.95c1.03 0 1.98-.19 2.84-.58.86-.38 1.6-.91 2.21-1.57.62-.67 1.1-1.45 1.44-2.34s.51-1.85.51-2.86-.17-1.97-.51-2.86-.82-1.67-1.44-2.34a6.765 6.765 0 0 0-2.21-1.58c-.86-.38-1.8-.58-2.84-.58s-1.98.19-2.84.58c-.86.38-1.6.91-2.21 1.58-.62.67-1.1 1.45-1.44 2.34s-.51 1.85-.51 2.86.17 1.97.51 2.86.82 1.67 1.44 2.34c.62.67 1.35 1.19 2.21 1.57.86.38 1.8.58 2.84.58Zm19.13-16.2h2.1v15.75h8.1v1.95h-10.2v-17.7Zm27.22 18.15c-1.35 0-2.59-.23-3.71-.7s-2.1-1.11-2.93-1.94a8.706 8.706 0 0 1-1.92-2.95c-.46-1.14-.69-2.38-.69-3.71s.23-2.57.69-3.71 1.1-2.12 1.92-2.95c.83-.82 1.8-1.47 2.93-1.94 1.12-.47 2.36-.7 3.71-.7s2.59.23 3.71.7 2.1 1.11 2.92 1.94c.83.83 1.47 1.81 1.92 2.95s.69 2.38.69 3.71-.23 2.57-.69 3.71c-.46 1.14-1.1 2.12-1.92 2.95s-1.8 1.47-2.92 1.94c-1.12.47-2.36.7-3.71.7Zm0-1.95c1.03 0 1.98-.19 2.84-.58.86-.38 1.6-.91 2.21-1.57.62-.67 1.1-1.45 1.44-2.34s.51-1.85.51-2.86-.17-1.97-.51-2.86-.82-1.67-1.44-2.34a6.765 6.765 0 0 0-2.21-1.58c-.86-.38-1.8-.58-2.84-.58s-1.98.19-2.84.58c-.86.38-1.6.91-2.21 1.58-.62.67-1.1 1.45-1.44 2.34s-.51 1.85-.51 2.86.17 1.97.51 2.86.82 1.67 1.44 2.34c.62.67 1.35 1.19 2.21 1.57.86.38 1.8.58 2.84.58Zm34.18.3c-1.02.57-2.09.98-3.21 1.25s-2.26.4-3.41.4c-1.38 0-2.65-.22-3.8-.67-1.15-.45-2.15-1.08-2.99-1.9-.84-.82-1.5-1.8-1.96-2.94s-.7-2.4-.7-3.79.25-2.67.74-3.81c.49-1.14 1.17-2.12 2.04-2.92.87-.81 1.88-1.44 3.02-1.89 1.15-.45 2.39-.67 3.73-.67 1.17 0 2.29.17 3.36.52 1.08.35 2.04.95 2.89 1.8l-1.58 1.65c-.6-.65-1.33-1.15-2.19-1.5s-1.74-.53-2.64-.53c-1.02 0-1.96.18-2.83.55-.87.37-1.62.88-2.26 1.52-.64.65-1.14 1.42-1.5 2.33-.36.9-.54 1.88-.54 2.95s.18 2.02.54 2.92c.36.9.86 1.68 1.5 2.34.64.66 1.41 1.17 2.31 1.54.9.37 1.89.55 2.97.55.72 0 1.47-.09 2.25-.26s1.5-.43 2.15-.76v-5.43h-4.08v-1.95h6.17v8.7Zm10.9-16.5h2.1v17.7h-2.1v-17.7Zm13 0h11.12v1.95h-9.03v5.55H484v1.95h-8.42v6.3h9.48v1.95h-11.58v-17.7Zm29.72 3.13c-.35-.57-.82-.98-1.4-1.24s-1.19-.39-1.83-.39c-.47 0-.92.06-1.38.18-.45.12-.85.29-1.21.52s-.65.54-.86.92c-.22.38-.33.83-.33 1.35 0 .4.06.75.19 1.06s.33.59.61.84c.28.25.67.48 1.15.7.48.22 1.08.43 1.78.65.68.22 1.35.45 1.99.7s1.21.57 1.7.95.88.86 1.17 1.44c.29.58.44 1.3.44 2.16s-.17 1.65-.53 2.3a4.71 4.71 0 0 1-1.39 1.61c-.58.42-1.24.74-1.99.95s-1.52.31-2.32.31c-.52 0-1.03-.05-1.55-.14s-1.01-.23-1.49-.42a6.11 6.11 0 0 1-1.34-.75c-.42-.31-.78-.69-1.08-1.14l1.8-1.47c.38.65.92 1.14 1.6 1.47.68.33 1.41.5 2.18.5.45 0 .9-.07 1.36-.2.46-.13.87-.33 1.24-.59.37-.26.67-.58.9-.96.23-.38.35-.83.35-1.33 0-.55-.09-1-.28-1.34s-.47-.64-.85-.89-.87-.47-1.45-.67-1.27-.43-2.05-.7c-.63-.2-1.22-.43-1.75-.69-.53-.26-1-.58-1.39-.95s-.7-.83-.92-1.35c-.22-.53-.34-1.15-.34-1.89 0-.85.17-1.59.5-2.22a4.7 4.7 0 0 1 1.35-1.59 6.18 6.18 0 0 1 1.92-.96c.72-.22 1.47-.32 2.25-.32 1 0 1.91.15 2.74.46.83.31 1.56.85 2.21 1.61l-1.73 1.5Z" fill="primary"/>
</svg>

